<svg width="172" height="80" viewBox="181 21 172 80" xmlns="http://www.w3.org/2000/svg" xmlns:xlink="http://www.w3.org/1999/xlink"><defs><path id="path-1" d="M0 79.956h171.935V0H0z"/></defs><g id="Page-1" fill="none" fill-rule="evenodd" transform="translate(181 21)"><path d="M37.47 20.404l3.94-2.291c1.036 1.7 2.384 2.95 4.768 2.95 2.005 0 3.283-1.007 3.283-2.394 0-1.666-1.313-2.256-3.525-3.227l-1.21-.52c-3.49-1.493-5.805-3.367-5.805-7.323 0-3.643 2.764-6.419 7.085-6.419 3.075 0 5.287 1.076 6.877 3.887l-3.767 2.428c-.83-1.492-1.728-2.081-3.11-2.081-1.418 0-2.316.901-2.316 2.081 0 1.458.898 2.048 2.972 2.95l1.21.52c4.112 1.77 6.428 3.575 6.428 7.634 0 4.372-3.421 6.766-8.019 6.766-4.491 0-7.394-2.15-8.811-4.961z" id="Fill-1" fill="#006EB6"/><path d="M58.253 19.501v-5.343h-2.178V10.27h2.178V2.568h4.63v7.703h3.767v3.887h-3.767v5.482c0 1.492.485 1.805 1.21 1.805.76 0 1.313-.417 1.624-.625l1.763 3.262c-.726.59-1.97 1.352-4.112 1.352-2.972 0-5.115-1.491-5.115-5.933" id="Fill-3" fill="#006EB6"/><path d="M79.927 17.628c0-2.186-1.14-3.54-3.144-3.54-1.97 0-3.076 1.354-3.076 3.54 0 2.255 1.105 3.643 3.076 3.643 2.004 0 3.144-1.388 3.144-3.643m-11.059 0c0-4.477 2.87-7.668 6.567-7.668 2.212 0 3.662.936 4.492 2.532l-.069-2.22h4.63v14.782h-4.63l.07-2.256c-.76 1.492-2.316 2.567-4.562 2.567-3.526 0-6.498-3.191-6.498-7.737" id="Fill-5" fill="#006EB6"/><path d="M98.689 17.628c0-2.186-1.314-3.54-3.318-3.54-1.97 0-3.214 1.354-3.214 3.54 0 2.325 1.244 3.643 3.214 3.643 2.004 0 3.318-1.318 3.318-3.643m-11.336 0c0-4.546 3.041-7.668 6.601-7.668 2.35 0 3.664.936 4.596 2.394V0h4.666v25.054H98.55l.104-2.153c-.829 1.562-2.384 2.464-4.631 2.464-3.594 0-6.67-3.191-6.67-7.737" id="Fill-7" fill="#006EB6"/><path d="M105.559 22.555l2.73-2.43c1.003.973 2.281 1.562 3.664 1.562 1.52 0 2.004-.277 2.004-.902 0-.798-.934-.798-3.317-1.423-2.005-.52-4.251-1.63-4.251-4.718 0-3.332 2.558-4.684 5.702-4.684 2.419 0 4.147.797 5.356 2.046l-2.488 2.672c-.69-.59-1.727-1.11-2.834-1.11-1.071 0-1.589.277-1.589.867 0 .833.932.937 2.937 1.388 2.143.486 4.838 1.492 4.838 4.615 0 2.707-1.417 4.927-6.047 4.927-3.422 0-5.426-1.283-6.705-2.81" id="Fill-9" fill="#006EB6"/><path d="M79.927 44.923c0-2.186-1.14-3.54-3.144-3.54-1.97 0-3.076 1.354-3.076 3.54 0 2.256 1.105 3.643 3.076 3.643 2.004 0 3.144-1.387 3.144-3.643m-11.059 0c0-4.476 2.87-7.669 6.567-7.669 2.212 0 3.662.937 4.492 2.534l-.069-2.221h4.63v14.782h-4.63l.07-2.256c-.76 1.491-2.316 2.567-4.562 2.567-3.526 0-6.498-3.191-6.498-7.737" id="Fill-11" fill="#006EB6"/><path d="M88 37.567h4.666l-.069 2.671c1.07-2.429 2.799-2.984 4.32-2.984.967 0 1.692.278 2.28.59l-1.486 4.268c-.587-.278-1.14-.451-1.796-.451-2.11 0-3.249.972-3.249 4.13v6.557H88V37.567z" id="Fill-13" fill="#006EB6"/><path d="M99.909 44.923c0-4.476 3.456-7.669 8.052-7.669 2.937 0 4.7 1.076 6.186 2.95l-3.318 2.706c-.552-.902-1.693-1.561-2.868-1.561-2.107 0-3.282 1.492-3.282 3.574 0 2.15 1.175 3.678 3.282 3.678 1.487 0 2.28-.694 2.972-1.388l3.145 2.776c-1.45 1.63-3.18 2.671-6.117 2.671-4.596 0-8.052-3.191-8.052-7.737" id="Fill-15" fill="#006EB6"/><path d="M116.414 27.296h4.666v12.596c.898-1.701 2.522-2.638 4.561-2.638 3.214 0 5.53 2.36 5.53 6.558v8.536h-4.666v-8.223c0-1.666-.794-2.603-2.453-2.603-1.867 0-2.972 1.041-2.972 2.915v7.911h-4.666V27.296z" id="Fill-17" fill="#006EB6"/><mask id="mask-2" fill="#fff"><use xlink:href="#path-1"/></mask><path d="M134.568 52.349h4.666V37.567h-4.666v14.782zm-.622-20.195c0-1.701 1.382-2.915 2.972-2.915s2.938 1.214 2.938 2.915c0 1.735-1.348 2.949-2.938 2.949s-2.972-1.214-2.972-2.95z" id="Fill-19" fill="#006EB6" mask="url(#mask-2)"/><path d="M153.205 43.673c-.208-1.63-1.245-2.601-3.075-2.601-1.832 0-3.077.831-3.457 2.601h6.532zm-2.661 5.101a6.37 6.37 0 0 0 3.697-1.18l2.662 2.88c-1.417 1.25-3.215 2.186-6.29 2.186-5.253 0-8.64-3.191-8.64-7.737 0-4.476 3.56-7.669 8.122-7.669 5.287 0 8.156 3.956 7.81 9.126h-11.163c.45 1.527 1.694 2.394 3.802 2.394z" id="Fill-21" fill="#006EB6" mask="url(#mask-2)"/><path d="M161.983 41.453h-2.454v-3.886h2.454v-4.963c0-3.816 1.797-5.76 5.425-5.76 2.073 0 3.456.624 4.528 1.874l-2.523 3.124c-.345-.417-.76-.8-1.486-.8-.76 0-1.28.417-1.28 1.493v5.032h3.976v3.886h-3.975v10.895h-4.665V41.454z" id="Fill-22" fill="#006EB6" mask="url(#mask-2)"/><path d="M9.297 75.376c1.97 0 3.213-1.32 3.213-3.262 0-1.908-1.278-3.227-3.49-3.227H4.84v6.489h4.458zM8.57 64.758c1.556 0 2.593-.868 2.593-2.221 0-1.353-.865-2.22-2.35-2.22H4.839v4.441H8.57zM0 56.048h9.09c4.389 0 6.841 2.776 6.841 6.107 0 2.186-1.278 3.678-3.317 4.338 3.214.763 4.77 2.915 4.77 5.864 0 4.199-2.972 7.287-7.88 7.287H0V56.047z" id="Fill-23" fill="#006EB6" mask="url(#mask-2)"/><path d="M20.386 64.862h4.665l-.068 2.672c1.071-2.43 2.8-2.984 4.32-2.984.967 0 1.693.278 2.28.59l-1.485 4.267c-.588-.277-1.142-.45-1.798-.45-2.107 0-3.249.971-3.249 4.129v6.557h-4.665V64.862z" id="Fill-24" fill="#006EB6" mask="url(#mask-2)"/><path d="M43.295 70.97c-.207-1.632-1.244-2.603-3.076-2.603-1.83 0-3.075.832-3.455 2.602h6.531zm-2.66 5.1a6.375 6.375 0 0 0 3.698-1.18l2.66 2.88c-1.416 1.25-3.214 2.186-6.29 2.186-5.253 0-8.64-3.193-8.64-7.738 0-4.476 3.56-7.668 8.122-7.668 5.288 0 8.156 3.955 7.81 9.125H36.832c.45 1.528 1.694 2.394 3.802 2.394z" id="Fill-25" fill="#006EB6" mask="url(#mask-2)"/><path d="M61.422 72.218c0-2.186-1.314-3.539-3.318-3.539-1.97 0-3.214 1.353-3.214 3.54 0 2.324 1.244 3.643 3.214 3.643 2.004 0 3.318-1.32 3.318-3.644m-11.336 0c0-4.545 3.041-7.668 6.601-7.668 2.35 0 3.663.937 4.596 2.393V54.591h4.666v25.052h-4.666l.104-2.15c-.83 1.56-2.384 2.463-4.631 2.463-3.594 0-6.67-3.193-6.67-7.738" id="Fill-26" fill="#006EB6" mask="url(#mask-2)"/><path d="M79.927 72.218c0-2.186-1.14-3.539-3.144-3.539-1.97 0-3.076 1.353-3.076 3.54 0 2.254 1.105 3.643 3.076 3.643 2.004 0 3.144-1.389 3.144-3.644m-11.059 0c0-4.476 2.87-7.668 6.567-7.668 2.212 0 3.662.937 4.492 2.533l-.069-2.221h4.63v14.781h-4.63l.07-2.255c-.76 1.492-2.316 2.568-4.562 2.568-3.526 0-6.498-3.193-6.498-7.738" id="Fill-27" fill="#006EB6" mask="url(#mask-2)"/></g></svg>