<svg width="172px" height="80px" viewBox="181 21 172 80" version="1.1" xmlns="http://www.w3.org/2000/svg" xmlns:xlink="http://www.w3.org/1999/xlink">
    <!-- Generator: Sketch 41.2 (35397) - http://www.bohemiancoding.com/sketch -->
    <desc>Created with Sketch.</desc>
    <defs>
        <polygon id="path-1" points="0 79.9560833 171.935243 79.9560833 171.935243 0.00025 0 0.00025"></polygon>
    </defs>
    <g id="Page-1" stroke="none" stroke-width="1" fill="none" fill-rule="evenodd" transform="translate(181.000000, 21.000000)">
        <path d="M37.4697672,20.4036667 L41.409585,18.1128333 C42.4462045,19.8136667 43.7940587,21.0628333 46.1777024,21.0628333 C48.1828846,21.0628333 49.4610223,20.0561667 49.4610223,18.6686667 C49.4610223,17.0028333 48.1480263,16.4128333 45.9361842,15.442 L44.7269332,14.9211667 C41.2361235,13.4286667 38.9205364,11.5553333 38.9205364,7.5995 C38.9205364,3.95616667 41.6851316,1.18033333 46.0059008,1.18033333 C49.0809008,1.18033333 51.2927429,2.25616667 52.8829453,5.067 L49.1157591,7.49533333 C48.2857996,6.00283333 47.3877834,5.41366667 46.0059008,5.41366667 C44.58833,5.41366667 43.6903138,6.31533333 43.6903138,7.49533333 C43.6903138,8.95283333 44.58833,9.54283333 46.6615688,10.4445 L47.8716498,10.9653333 C51.9840992,12.7353333 54.2996862,14.5395 54.2996862,18.5995 C54.2996862,22.9711667 50.8785931,25.3653333 46.2814474,25.3653333 C41.7897065,25.3653333 38.8865081,23.2145 37.4697672,20.4036667 L37.4697672,20.4036667 Z" id="Fill-1" fill="#006EB6"></path>
        <path d="M58.2527834,19.5011667 L58.2527834,14.1578333 L56.0749696,14.1578333 L56.0749696,10.2711667 L58.2527834,10.2711667 L58.2527834,2.56783333 L62.8831275,2.56783333 L62.8831275,10.2711667 L66.6503138,10.2711667 L66.6503138,14.1578333 L62.8831275,14.1578333 L62.8831275,19.6403333 C62.8831275,21.132 63.3678239,21.4445 64.0932085,21.4445 C64.8534514,21.4445 65.4062045,21.0278333 65.7166093,20.8203333 L67.4802733,24.082 C66.7540587,24.6711667 65.5099494,25.4345 63.3678239,25.4345 C60.3957389,25.4345 58.2527834,23.9428333 58.2527834,19.5011667" id="Fill-3" fill="#006EB6"></path>
        <path d="M79.9273421,17.6278333 C79.9273421,15.442 78.7869777,14.0886667 76.7826255,14.0886667 C74.8123016,14.0886667 73.7067955,15.442 73.7067955,17.6278333 C73.7067955,19.8828333 74.8123016,21.2711667 76.7826255,21.2711667 C78.7869777,21.2711667 79.9273421,19.8828333 79.9273421,17.6278333 M68.8681316,17.6278333 C68.8681316,13.1511667 71.7373016,9.9595 75.4347713,9.9595 C77.6466134,9.9595 79.0973826,10.8961667 79.9273421,12.492 L79.8584555,10.2711667 L84.4887996,10.2711667 L84.4887996,25.0536667 L79.8584555,25.0536667 L79.9273421,22.7978333 C79.1670992,24.2895 77.6117551,25.3653333 75.3658846,25.3653333 C71.8402166,25.3653333 68.8681316,22.1736667 68.8681316,17.6278333" id="Fill-5" fill="#006EB6"></path>
        <path d="M98.6889919,17.6278333 C98.6889919,15.442 97.375166,14.0886667 95.3708138,14.0886667 C93.4013198,14.0886667 92.1572105,15.442 92.1572105,17.6278333 C92.1572105,19.9528333 93.4013198,21.2711667 95.3708138,21.2711667 C97.375166,21.2711667 98.6889919,19.9528333 98.6889919,17.6278333 M87.3534049,17.6278333 C87.3534049,13.082 90.3943765,9.9595 93.9540729,9.9595 C96.3036883,9.9595 97.6175142,10.8961667 98.5503887,12.3536667 L98.5503887,0.000333333333 L103.216421,0.000333333333 L103.216421,25.0536667 L98.5503887,25.0536667 L98.6541336,22.9011667 C97.825004,24.4628333 96.2696599,25.3653333 94.0229595,25.3653333 C90.4292348,25.3653333 87.3534049,22.1736667 87.3534049,17.6278333" id="Fill-7" fill="#006EB6"></path>
        <path d="M105.558816,22.5553333 L108.289383,20.1253333 C109.291974,21.0978333 110.570111,21.687 111.952824,21.687 C113.47331,21.687 113.957176,21.4095 113.957176,20.7853333 C113.957176,19.987 113.023472,19.987 110.639828,19.362 C108.634646,18.842 106.388775,17.7311667 106.388775,14.6436667 C106.388775,11.312 108.946711,9.9595 112.090597,9.9595 C114.509929,9.9595 116.237905,10.757 117.447156,12.0061667 L114.958937,14.6778333 C114.268411,14.0886667 113.231791,13.5678333 112.125455,13.5678333 C111.053978,13.5678333 110.536083,13.8453333 110.536083,14.4353333 C110.536083,15.2678333 111.468128,15.372 113.47331,15.8228333 C115.616265,16.3095 118.311144,17.3153333 118.311144,20.4378333 C118.311144,23.1445 116.894403,25.3653333 112.264059,25.3653333 C108.842136,25.3653333 106.837783,24.082 105.558816,22.5553333" id="Fill-9" fill="#006EB6"></path>
        <path d="M79.9273421,44.92275 C79.9273421,42.7369167 78.7869777,41.3835833 76.7826255,41.3835833 C74.8123016,41.3835833 73.7067955,42.7369167 73.7067955,44.92275 C73.7067955,47.1785833 74.8123016,48.5660833 76.7826255,48.5660833 C78.7869777,48.5660833 79.9273421,47.1785833 79.9273421,44.92275 M68.8681316,44.92275 C68.8681316,40.4469167 71.7373016,37.2544167 75.4347713,37.2544167 C77.6466134,37.2544167 79.0973826,38.1910833 79.9273421,39.78775 L79.8584555,37.5669167 L84.4887996,37.5669167 L84.4887996,52.3485833 L79.8584555,52.3485833 L79.9273421,50.09275 C79.1670992,51.5844167 77.6117551,52.66025 75.3658846,52.66025 C71.8402166,52.66025 68.8681316,49.4685833 68.8681316,44.92275" id="Fill-11" fill="#006EB6"></path>
        <path d="M88.0000263,37.56675 L92.6660587,37.56675 L92.5971721,40.2384167 C93.6678198,37.80925 95.3957955,37.25425 96.9162814,37.25425 C97.8840142,37.25425 98.6093988,37.53175 99.1970101,37.84425 L97.7113826,42.11175 C97.1237713,41.83425 96.5710182,41.6609167 95.9145202,41.6609167 C93.8055931,41.6609167 92.6660587,42.6325833 92.6660587,45.7900833 L92.6660587,52.3484167 L88.0000263,52.3484167 L88.0000263,37.56675 Z" id="Fill-13" fill="#006EB6"></path>
        <path d="M99.9087834,44.92275 C99.9087834,40.4469167 103.364735,37.2544167 107.961051,37.2544167 C110.898277,37.2544167 112.661111,38.33025 114.146739,40.2035833 L110.829391,42.91025 C110.276638,42.00775 109.136273,41.3485833 107.961051,41.3485833 C105.853783,41.3485833 104.678561,42.8410833 104.678561,44.92275 C104.678561,47.0735833 105.853783,48.6010833 107.961051,48.6010833 C109.447508,48.6010833 110.241779,47.9069167 110.933136,47.21275 L114.077852,49.9885833 C112.627083,51.6194167 110.898277,52.66025 107.961051,52.66025 C103.364735,52.66025 99.9087834,49.4685833 99.9087834,44.92275" id="Fill-15" fill="#006EB6"></path>
        <path d="M116.413607,27.29575 L121.07964,27.29575 L121.07964,39.8915833 C121.977656,38.19075 123.601887,37.2540833 125.641097,37.2540833 C128.8547,37.2540833 131.170287,39.61325 131.170287,43.8115833 L131.170287,52.34825 L126.505085,52.34825 L126.505085,44.1249167 C126.505085,42.4590833 125.710814,41.5224167 124.051725,41.5224167 C122.185146,41.5224167 121.07964,42.56325 121.07964,44.4365833 L121.07964,52.34825 L116.413607,52.34825 L116.413607,27.29575 Z" id="Fill-17" fill="#006EB6"></path>
        <mask id="mask-2" fill="white">
            <use xlink:href="#path-1"></use>
        </mask>
        <g id="Clip-20"></g>
        <path d="M134.567976,52.3485833 L139.234008,52.3485833 L139.234008,37.5669167 L134.567976,37.5669167 L134.567976,52.3485833 Z M133.945506,32.1535833 C133.945506,30.45275 135.328219,29.2385833 136.917591,29.2385833 C138.507794,29.2385833 139.855648,30.45275 139.855648,32.1535833 C139.855648,33.8885833 138.507794,35.10275 136.917591,35.10275 C135.328219,35.10275 133.945506,33.8885833 133.945506,32.1535833 L133.945506,32.1535833 Z" id="Fill-19" fill="#006EB6" mask="url(#mask-2)"></path>
        <path d="M153.204551,43.6735 C152.997061,42.0426667 151.960441,41.0718333 150.129551,41.0718333 C148.29783,41.0718333 147.052891,41.9035 146.672769,43.6735 L153.204551,43.6735 Z M150.5437,48.7743333 C152.236818,48.7743333 153.515785,48.1151667 154.24117,47.5943333 L156.90285,50.4743333 C155.486109,51.7235 153.688417,52.6601667 150.612587,52.6601667 C145.359773,52.6601667 141.972709,49.4685 141.972709,44.9226667 C141.972709,40.4468333 145.532405,37.2543333 150.094692,37.2543333 C155.382364,37.2543333 158.250704,41.2101667 157.904611,46.3801667 L146.741656,46.3801667 C147.191494,47.9068333 148.435603,48.7743333 150.5437,48.7743333 L150.5437,48.7743333 Z" id="Fill-21" fill="#006EB6" mask="url(#mask-2)"></path>
        <path d="M161.9827,41.4535 L159.52851,41.4535 L159.52851,37.5668333 L161.9827,37.5668333 L161.9827,32.6043333 C161.9827,28.7876667 163.779563,26.8443333 167.408146,26.8443333 C169.481385,26.8443333 170.864097,27.4685 171.935575,28.7185 L169.413328,31.8418333 C169.068065,31.4251667 168.652255,31.0426667 167.92687,31.0426667 C167.166628,31.0426667 166.647903,31.4593333 166.647903,32.5351667 L166.647903,37.5668333 L170.622579,37.5668333 L170.622579,41.4535 L166.647903,41.4535 L166.647903,52.3485 L161.9827,52.3485 L161.9827,41.4535 Z" id="Fill-22" fill="#006EB6" mask="url(#mask-2)"></path>
        <path d="M9.29654251,75.376 C11.2668664,75.376 12.5101457,74.0568333 12.5101457,72.1143333 C12.5101457,70.206 11.2320081,68.8868333 9.02016599,68.8868333 L4.83882996,68.8868333 L4.83882996,75.376 L9.29654251,75.376 Z M8.57032794,64.7585 C10.1256721,64.7585 11.1631215,63.8901667 11.1631215,62.5368333 C11.1631215,61.1843333 10.2983036,60.3168333 8.81267611,60.3168333 L4.83882996,60.3168333 L4.83882996,64.7585 L8.57032794,64.7585 Z M0.000165991903,56.0485 L9.08905263,56.0485 C13.4787085,56.0485 15.9312389,58.8243333 15.9312389,62.1551667 C15.9312389,64.341 14.6531012,65.8335 12.6138907,66.4926667 C15.8283239,67.256 17.383668,69.4076667 17.383668,72.3568333 C17.383668,76.556 14.411583,79.6435 9.50403239,79.6435 L0.000165991903,79.6435 L0.000165991903,56.0485 Z" id="Fill-23" fill="#006EB6" mask="url(#mask-2)"></path>
        <path d="M20.3862955,64.8616667 L25.051498,64.8616667 L24.9826113,67.5341667 C26.0540891,65.1041667 27.7820648,64.55 29.3025506,64.55 C30.2702834,64.55 30.995668,64.8275 31.5832794,65.1391667 L30.0976518,69.4075 C29.5100405,69.13 28.9564575,68.9566667 28.2999595,68.9566667 C26.1926923,68.9566667 25.051498,69.9283333 25.051498,73.0858333 L25.051498,79.6433333 L20.3862955,79.6433333 L20.3862955,64.8616667 Z" id="Fill-24" fill="#006EB6" mask="url(#mask-2)"></path>
        <path d="M43.295253,70.96925 C43.0877632,69.3384167 42.0511437,68.36675 40.2194231,68.36675 C38.3885324,68.36675 37.1435931,69.19925 36.7643016,70.96925 L43.295253,70.96925 Z M40.6344028,76.06925 C42.3275202,76.06925 43.6064879,75.4109167 44.3327024,74.8900833 L46.9935526,77.7700833 C45.5768117,79.01925 43.7791194,79.9559167 40.7032895,79.9559167 C35.4504757,79.9559167 32.0634109,76.7634167 32.0634109,72.2184167 C32.0634109,67.74175 35.6231073,64.5500833 40.1853947,64.5500833 C45.4730668,64.5500833 48.3414069,68.5050833 47.9953138,73.6750833 L36.8323583,73.6750833 C37.2821964,75.2025833 38.5263057,76.06925 40.6344028,76.06925 L40.6344028,76.06925 Z" id="Fill-25" fill="#006EB6" mask="url(#mask-2)"></path>
        <path d="M61.4219008,72.2184167 C61.4219008,70.03175 60.1080749,68.67925 58.1037227,68.67925 C56.1342287,68.67925 54.8901194,70.03175 54.8901194,72.2184167 C54.8901194,74.5425833 56.1342287,75.86175 58.1037227,75.86175 C60.1080749,75.86175 61.4219008,74.5425833 61.4219008,72.2184167 M50.0863138,72.2184167 C50.0863138,67.6725833 53.1272854,64.5500833 56.6869818,64.5500833 C59.0365972,64.5500833 60.3495931,65.48675 61.2832976,66.9434167 L61.2832976,54.5909167 L65.94933,54.5909167 L65.94933,79.6434167 L61.2832976,79.6434167 L61.3870425,77.4925833 C60.557083,79.0534167 59.0025688,79.9559167 56.7558684,79.9559167 C53.1621437,79.9559167 50.0863138,76.7634167 50.0863138,72.2184167" id="Fill-26" fill="#006EB6" mask="url(#mask-2)"></path>
        <path d="M79.9273421,72.2184167 C79.9273421,70.03175 78.7869777,68.67925 76.7826255,68.67925 C74.8123016,68.67925 73.7067955,70.03175 73.7067955,72.2184167 C73.7067955,74.4734167 74.8123016,75.86175 76.7826255,75.86175 C78.7869777,75.86175 79.9273421,74.4734167 79.9273421,72.2184167 M68.8681316,72.2184167 C68.8681316,67.74175 71.7373016,64.5500833 75.4347713,64.5500833 C77.6466134,64.5500833 79.0973826,65.48675 79.9273421,67.0825833 L79.8584555,64.86175 L84.4887996,64.86175 L84.4887996,79.6434167 L79.8584555,79.6434167 L79.9273421,77.3884167 C79.1670992,78.8800833 77.6117551,79.9559167 75.3658846,79.9559167 C71.8402166,79.9559167 68.8681316,76.7634167 68.8681316,72.2184167" id="Fill-27" fill="#006EB6" mask="url(#mask-2)"></path>
    </g>
</svg>